<svg preserveAspectRatio="none" width="100%" height="100%" overflow="visible" style="display: block;" viewBox="0 0 13.15 13.15" fill="none" xmlns="http://www.w3.org/2000/svg">
<path id="Vector" fill-rule="evenodd" clip-rule="evenodd" d="M5.37954 9.56363C7.69036 9.56363 9.56363 7.69036 9.56363 5.37954C9.56363 3.06873 7.69036 1.19545 5.37954 1.19545C3.06873 1.19545 1.19545 3.06873 1.19545 5.37954C1.19545 7.69036 3.06873 9.56363 5.37954 9.56363ZM5.37954 10.7591C6.64973 10.7591 7.81709 10.3189 8.73738 9.58264L12.1296 12.975C12.363 13.2083 12.7415 13.2083 12.975 12.975C13.2083 12.7415 13.2083 12.363 12.975 12.1296L9.58264 8.73738C10.3189 7.81709 10.7591 6.64973 10.7591 5.37954C10.7591 2.40851 8.35058 0 5.37954 0C2.40851 0 0 2.40851 0 5.37954C0 8.35058 2.40851 10.7591 5.37954 10.7591Z" fill="var(--fill-0, #191A29)"/>
</svg>
